<?xml version="1.0" encoding="utf-8"?>
<!-- Svg Vector Icons : http://www.onlinewebfonts.com/icon -->
<!DOCTYPE svg PUBLIC "-//W3C//DTD SVG 1.1//EN" "http://www.w3.org/Graphics/SVG/1.1/DTD/svg11.dtd">
<svg version="1.1" xmlns="http://www.w3.org/2000/svg" xmlns:xlink="http://www.w3.org/1999/xlink" x="0px" y="0px" viewBox="0 0 256 256" enable-background="new 0 0 256 256" xml:space="preserve">
<metadata> Svg Vector Icons : http://www.onlinewebfonts.com/icon </metadata>
<g><g><g><path fill="#575757"  d="M26.7,62.4c-7.8,2.1-13.9,8.3-15.9,16.2c-1.1,4-1,94.9,0,98.9c2.1,7.9,8.2,14,16.2,16.1c4,1.1,198,1.1,202,0c8-2.1,14.1-8.2,16.2-16.1c1.1-4.1,1.1-94.9,0-99c-2.1-7.9-8.2-14-16.2-16.1C225.1,61.3,30.5,61.4,26.7,62.4z M227.8,77.6c0.7,0.5,1.7,1.5,2.2,2.2c1,1.2,1,1.5,1,48.2c0,46.7,0,46.9-1,48.2c-0.5,0.7-1.5,1.7-2.2,2.2l-1.2,1H128H29.5l-1.2-1c-0.7-0.5-1.7-1.5-2.2-2.2c-1-1.2-1-1.6-1.1-46.9c0-25.1,0-46.3,0.1-47.2c0.3-1.8,2.3-4.2,4.1-5c1.2-0.5,18.6-0.6,99.3-0.5l98,0.1L227.8,77.6z"/><path fill="#575757"  d="M48.1,92.3c-1.1,1.1-1.2,1.4-1.2,6.2c0,4.8,0,5.2,1.2,6.2c1.1,1.1,1.4,1.2,6.2,1.2s5.2,0,6.2-1.2c1.1-1.1,1.2-1.4,1.2-6.2c0-4.8,0-5.2-1.2-6.2c-1.1-1.1-1.4-1.2-6.2-1.2S49.1,91.2,48.1,92.3z"/><path fill="#575757"  d="M77.6,92.3c-1.1,1.1-1.2,1.4-1.2,6.2c0,4.8,0,5.2,1.2,6.2c1.1,1.1,1.4,1.2,6.2,1.2s5.2,0,6.2-1.2c1.1-1.1,1.2-1.4,1.2-6.2c0-4.8,0-5.2-1.2-6.2c-1.1-1.1-1.4-1.2-6.2-1.2S78.6,91.2,77.6,92.3z"/><path fill="#575757"  d="M107,92.3c-1.1,1.1-1.2,1.4-1.2,6.2c0,4.8,0,5.2,1.2,6.2c1.1,1.1,1.4,1.2,6.2,1.2s5.2,0,6.2-1.2c1.1-1.1,1.2-1.4,1.2-6.2c0-4.8,0-5.2-1.2-6.2c-1.1-1.1-1.4-1.2-6.2-1.2S108.1,91.2,107,92.3z"/><path fill="#575757"  d="M136.5,92.3c-1.1,1.1-1.2,1.4-1.2,6.2c0,4.8,0,5.2,1.2,6.2c1.1,1.1,1.4,1.2,6.2,1.2c4.8,0,5.2,0,6.2-1.2c1.1-1.1,1.2-1.4,1.2-6.2c0-4.8,0-5.2-1.2-6.2c-1.1-1.1-1.4-1.2-6.2-1.2C137.9,91.1,137.6,91.2,136.5,92.3z"/><path fill="#575757"  d="M166,92.3c-1.1,1.1-1.2,1.4-1.2,6.2c0,4.8,0,5.2,1.2,6.2c1.1,1.1,1.4,1.2,6.2,1.2s5.2,0,6.2-1.2c1.1-1.1,1.2-1.4,1.2-6.2c0-4.8,0-5.2-1.2-6.2c-1.1-1.1-1.4-1.2-6.2-1.2C167.4,91.1,167,91.2,166,92.3z"/><path fill="#575757"  d="M195.5,92.3c-1.1,1.1-1.2,1.4-1.2,6.2c0,4.8,0,5.2,1.2,6.2c1.1,1.1,1.4,1.2,6.2,1.2s5.2,0,6.2-1.2c1.1-1.1,1.2-1.4,1.2-6.2c0-4.8,0-5.2-1.2-6.2c-1.1-1.1-1.4-1.2-6.2-1.2S196.5,91.2,195.5,92.3z"/><path fill="#575757"  d="M48.1,121.8c-1.1,1.1-1.2,1.4-1.2,6.2c0,4.8,0,5.2,1.2,6.2c1.1,1.1,1.4,1.2,6.2,1.2s5.2,0,6.2-1.2c1.1-1.1,1.2-1.4,1.2-6.2c0-4.8,0-5.2-1.2-6.2c-1.1-1.1-1.4-1.2-6.2-1.2S49.1,120.6,48.1,121.8z"/><path fill="#575757"  d="M77.6,121.8c-1.1,1.1-1.2,1.4-1.2,6.2c0,4.8,0,5.2,1.2,6.2c1.1,1.1,1.4,1.2,6.2,1.2s5.2,0,6.2-1.2c1.1-1.1,1.2-1.4,1.2-6.2c0-4.8,0-5.2-1.2-6.2c-1.1-1.1-1.4-1.2-6.2-1.2S78.6,120.6,77.6,121.8z"/><path fill="#575757"  d="M107,121.8c-1.1,1.1-1.2,1.4-1.2,6.2c0,4.8,0,5.2,1.2,6.2c1.1,1.1,1.4,1.2,6.2,1.2s5.2,0,6.2-1.2c1.1-1.1,1.2-1.4,1.2-6.2c0-4.8,0-5.2-1.2-6.2c-1.1-1.1-1.4-1.2-6.2-1.2S108.1,120.6,107,121.8z"/><path fill="#575757"  d="M136.5,121.8c-1.1,1.1-1.2,1.4-1.2,6.2c0,4.8,0,5.2,1.2,6.2c1.1,1.1,1.4,1.2,6.2,1.2c4.8,0,5.2,0,6.2-1.2c1.1-1.1,1.2-1.4,1.2-6.2c0-4.8,0-5.2-1.2-6.2c-1.1-1.1-1.4-1.2-6.2-1.2C137.9,120.6,137.6,120.6,136.5,121.8z"/><path fill="#575757"  d="M166,121.8c-1.1,1.1-1.2,1.4-1.2,6.2c0,4.8,0,5.2,1.2,6.2c1.1,1.1,1.4,1.2,6.2,1.2s5.2,0,6.2-1.2c1.1-1.1,1.2-1.4,1.2-6.2c0-4.8,0-5.2-1.2-6.2c-1.1-1.1-1.4-1.2-6.2-1.2C167.4,120.6,167,120.6,166,121.8z"/><path fill="#575757"  d="M195.5,121.8c-1.1,1.1-1.2,1.4-1.2,6.2c0,4.8,0,5.2,1.2,6.2c1.1,1.1,1.4,1.2,6.2,1.2s5.2,0,6.2-1.2c1.1-1.1,1.2-1.4,1.2-6.2c0-4.8,0-5.2-1.2-6.2c-1.1-1.1-1.4-1.2-6.2-1.2S196.5,120.6,195.5,121.8z"/><path fill="#575757"  d="M48.1,151.2c-1.1,1.1-1.2,1.4-1.2,6.2s0,5.2,1.2,6.2c1.1,1.1,1.4,1.2,6.2,1.2s5.2,0,6.2-1.2c1.1-1.1,1.2-1.4,1.2-6.2s0-5.2-1.2-6.2c-1.1-1.1-1.4-1.2-6.2-1.2S49.1,150.1,48.1,151.2z"/><path fill="#575757"  d="M77.6,151.2c-1.1,1.1-1.2,1.4-1.2,6.2s0,5.2,1.2,6.2l1.1,1.2H128h49.3l1.1-1.2c1.1-1.1,1.2-1.4,1.2-6.2s0-5.2-1.2-6.2l-1.1-1.2H128H78.7L77.6,151.2z"/><path fill="#575757"  d="M195.5,151.2c-1.1,1.1-1.2,1.4-1.2,6.2s0,5.2,1.2,6.2c1.1,1.1,1.4,1.2,6.2,1.2s5.2,0,6.2-1.2c1.1-1.1,1.2-1.4,1.2-6.2s0-5.2-1.2-6.2c-1.1-1.1-1.4-1.2-6.2-1.2S196.5,150.1,195.5,151.2z"/></g></g></g>
</svg>